<svg width="22" height="22" viewBox="0 0 22 22" fill="none" xmlns="http://www.w3.org/2000/svg">
<path d="M0.400391 20.6003C0.400329 21.1526 0.847993 21.6003 1.40028 21.6004C1.95256 21.6004 2.40033 21.1528 2.40039 20.6005L0.400391 20.6003ZM1.4008 17L0.400795 16.9999L1.4008 17ZM9.60039 14.4004C10.1527 14.4004 10.6004 13.9527 10.6004 13.4004C10.6004 12.8481 10.1527 12.4004 9.60039 12.4004V14.4004ZM20.6004 16.6004C21.1527 16.6004 21.6004 16.1527 21.6004 15.6004C21.6004 15.0481 21.1527 14.6004 20.6004 14.6004V16.6004ZM13.2004 14.6004C12.6481 14.6004 12.2004 15.0481 12.2004 15.6004C12.2004 16.1527 12.6481 16.6004 13.2004 16.6004V14.6004ZM15.9004 19.3002C15.9004 19.8525 16.3481 20.3002 16.9004 20.3002C17.4527 20.3002 17.9004 19.8525 17.9004 19.3002H15.9004ZM17.9004 11.9002C17.9004 11.348 17.4527 10.9002 16.9004 10.9002C16.3481 10.9002 15.9004 11.348 15.9004 11.9002H17.9004ZM12.4004 5.00039C12.4004 6.43633 11.2363 7.60039 9.80039 7.60039V9.60039C12.3409 9.60039 14.4004 7.5409 14.4004 5.00039H12.4004ZM9.80039 7.60039C8.36445 7.60039 7.20039 6.43633 7.20039 5.00039H5.20039C5.20039 7.5409 7.25988 9.60039 9.80039 9.60039V7.60039ZM7.20039 5.00039C7.20039 3.56445 8.36445 2.40039 9.80039 2.40039V0.400391C7.25988 0.400391 5.20039 2.45988 5.20039 5.00039H7.20039ZM9.80039 2.40039C11.2363 2.40039 12.4004 3.56445 12.4004 5.00039H14.4004C14.4004 2.45988 12.3409 0.400391 9.80039 0.400391V2.40039ZM2.40039 20.6005L2.4008 17.0001L0.400795 16.9999L0.400391 20.6003L2.40039 20.6005ZM5.00079 12.4004C2.46049 12.4004 0.401081 14.4596 0.400795 16.9999L2.4008 17.0001C2.40096 15.5643 3.56497 14.4004 5.00079 14.4004V12.4004ZM5.00079 14.4004H9.60039V12.4004H5.00079V14.4004ZM20.6004 14.6004H16.9004V16.6004H20.6004V14.6004ZM16.9004 14.6004H13.2004V16.6004H16.9004V14.6004ZM17.9004 19.3002V15.6004H15.9004V19.3002H17.9004ZM17.9004 15.6004V11.9002H15.9004V15.6004H17.9004Z" fill="#0B0A2A"/>
</svg>
