<svg width="40" height="40" viewBox="0 0 40 40" fill="none" xmlns="http://www.w3.org/2000/svg">
<path d="M15.2004 14.1202V15.1202C15.5561 15.1202 15.885 14.9313 16.0642 14.6241L15.2004 14.1202ZM16.8804 11.2402V10.2402C16.5247 10.2402 16.1958 10.4291 16.0166 10.7364L16.8804 11.2402ZM23.1204 11.2402L23.9842 10.7364C23.805 10.4291 23.4761 10.2402 23.1204 10.2402V11.2402ZM24.8004 14.1202L23.9366 14.6241C24.1158 14.9313 24.4447 15.1202 24.8004 15.1202V14.1202ZM11.4004 26.3602V16.5202H9.40039V26.3602H11.4004ZM12.8004 15.1202H15.2004V13.1202H12.8004V15.1202ZM16.0642 14.6241L17.7442 11.7441L16.0166 10.7364L14.3366 13.6164L16.0642 14.6241ZM16.8804 12.2402H23.1204V10.2402H16.8804V12.2402ZM22.2566 11.7441L23.9366 14.6241L25.6642 13.6164L23.9842 10.7364L22.2566 11.7441ZM24.8004 15.1202H27.2004V13.1202H24.8004V15.1202ZM28.6004 16.5202V26.3602H30.6004V16.5202H28.6004ZM28.6004 26.3602C28.6004 27.1334 27.9736 27.7602 27.2004 27.7602V29.7602C29.0782 29.7602 30.6004 28.238 30.6004 26.3602H28.6004ZM27.2004 15.1202C27.9736 15.1202 28.6004 15.747 28.6004 16.5202H30.6004C30.6004 14.6425 29.0782 13.1202 27.2004 13.1202V15.1202ZM11.4004 16.5202C11.4004 15.747 12.0272 15.1202 12.8004 15.1202V13.1202C10.9226 13.1202 9.40039 14.6425 9.40039 16.5202H11.4004ZM12.8004 27.7602C12.0272 27.7602 11.4004 27.1334 11.4004 26.3602H9.40039C9.40039 28.238 10.9226 29.7602 12.8004 29.7602V27.7602ZM22.6004 20.8402C22.6004 22.2762 21.4363 23.4402 20.0004 23.4402V25.4402C22.5409 25.4402 24.6004 23.3807 24.6004 20.8402H22.6004ZM20.0004 23.4402C18.5644 23.4402 17.4004 22.2762 17.4004 20.8402H15.4004C15.4004 23.3807 17.4599 25.4402 20.0004 25.4402V23.4402ZM17.4004 20.8402C17.4004 19.4043 18.5644 18.2402 20.0004 18.2402V16.2402C17.4599 16.2402 15.4004 18.2997 15.4004 20.8402H17.4004ZM20.0004 18.2402C21.4363 18.2402 22.6004 19.4043 22.6004 20.8402H24.6004C24.6004 18.2997 22.5409 16.2402 20.0004 16.2402V18.2402ZM27.2004 27.7602H12.8004V29.7602H27.2004V27.7602Z" fill="#F8F1F1"/>
</svg>
