<svg width="22" height="20" viewBox="0 0 22 20" fill="none" xmlns="http://www.w3.org/2000/svg">
<path d="M6.20039 4.12023V5.12023C6.55606 5.12023 6.88496 4.93132 7.06417 4.62411L6.20039 4.12023ZM7.88039 1.24023V0.240234C7.52472 0.240234 7.19582 0.429146 7.01661 0.736363L7.88039 1.24023ZM14.1204 1.24023L14.9842 0.736364C14.805 0.429146 14.4761 0.240234 14.1204 0.240234V1.24023ZM15.8004 4.12023L14.9366 4.62411C15.1158 4.93132 15.4447 5.12023 15.8004 5.12023V4.12023ZM2.40039 16.3602V6.52023H0.400391V16.3602H2.40039ZM3.80039 5.12023H6.20039V3.12023H3.80039V5.12023ZM7.06417 4.62411L8.74417 1.74411L7.01661 0.736363L5.33661 3.61636L7.06417 4.62411ZM7.88039 2.24023H14.1204V0.240234H7.88039V2.24023ZM13.2566 1.74411L14.9366 4.62411L16.6642 3.61636L14.9842 0.736364L13.2566 1.74411ZM15.8004 5.12023H18.2004V3.12023H15.8004V5.12023ZM19.6004 6.52023V16.3602H21.6004V6.52023H19.6004ZM19.6004 16.3602C19.6004 17.1334 18.9736 17.7602 18.2004 17.7602V19.7602C20.0782 19.7602 21.6004 18.238 21.6004 16.3602H19.6004ZM18.2004 5.12023C18.9736 5.12023 19.6004 5.74704 19.6004 6.52023H21.6004C21.6004 4.64247 20.0782 3.12023 18.2004 3.12023V5.12023ZM2.40039 6.52023C2.40039 5.74703 3.02719 5.12023 3.80039 5.12023V3.12023C1.92262 3.12023 0.400391 4.64246 0.400391 6.52023H2.40039ZM3.80039 17.7602C3.02719 17.7602 2.40039 17.1334 2.40039 16.3602H0.400391C0.400391 18.238 1.92262 19.7602 3.80039 19.7602V17.7602ZM13.6004 10.8402C13.6004 12.2762 12.4363 13.4402 11.0004 13.4402V15.4402C13.5409 15.4402 15.6004 13.3807 15.6004 10.8402H13.6004ZM11.0004 13.4402C9.56445 13.4402 8.40039 12.2762 8.40039 10.8402H6.40039C6.40039 13.3807 8.45988 15.4402 11.0004 15.4402V13.4402ZM8.40039 10.8402C8.40039 9.40429 9.56445 8.24023 11.0004 8.24023V6.24023C8.45988 6.24023 6.40039 8.29972 6.40039 10.8402H8.40039ZM11.0004 8.24023C12.4363 8.24023 13.6004 9.40429 13.6004 10.8402H15.6004C15.6004 8.29972 13.5409 6.24023 11.0004 6.24023V8.24023ZM18.2004 17.7602H3.80039V19.7602H18.2004V17.7602Z" fill="#0E0D35"/>
</svg>
