<svg width="10" height="9" viewBox="0 0 10 9" fill="none" xmlns="http://www.w3.org/2000/svg">
<path d="M9.48583 0.902348C9.33358 0.838925 9.16589 0.822255 9.00413 0.854458C8.84237 0.886662 8.69386 0.966283 8.5775 1.08318L7.5 2.16068L5.58917 0.249848C5.43289 0.0936222 5.22097 0.00585938 5 0.00585938C4.77903 0.00585938 4.56711 0.0936222 4.41083 0.249848L2.5 2.16068L1.4225 1.08318C1.30596 0.966674 1.15749 0.887335 0.99586 0.855195C0.834232 0.823056 0.666704 0.839558 0.514455 0.902617C0.362205 0.965675 0.232069 1.07246 0.140499 1.20947C0.0489284 1.34647 3.51869e-05 1.50756 0 1.67235L0 6.08318C0.000661607 6.63551 0.220367 7.16503 0.610925 7.55559C1.00148 7.94615 1.531 8.16585 2.08333 8.16651H7.91667C8.469 8.16585 8.99852 7.94615 9.38908 7.55559C9.77963 7.16503 9.99934 6.63551 10 6.08318V1.67235C10 1.50754 9.95121 1.34643 9.8597 1.20937C9.76818 1.07231 9.63807 0.965468 9.48583 0.902348Z" fill="#FF6700"/>
</svg>
