<svg width="20" height="20" viewBox="0 0 20 20" fill="none" xmlns="http://www.w3.org/2000/svg">
<path d="M13.6356 12.1818C13.6356 15.3951 11.0307 18 7.81745 18C4.60416 18 1.99927 15.3951 1.99927 12.1818C1.99927 8.96852 4.60416 6.36364 7.81745 6.36364C11.0307 6.36364 13.6356 8.96852 13.6356 12.1818Z" fill="#FF825B"/>
<path d="M8.49927 3.31402C9.5024 2.49276 10.7849 2 12.1824 2C15.3957 2 18.0006 4.60489 18.0006 7.81818C18.0006 9.21512 17.5083 10.4971 16.6877 11.5M13.6356 12.1818C13.6356 15.3951 11.0307 18 7.81745 18C4.60416 18 1.99927 15.3951 1.99927 12.1818C1.99927 8.96852 4.60416 6.36364 7.81745 6.36364C11.0307 6.36364 13.6356 8.96852 13.6356 12.1818Z" stroke="#FF825B" stroke-width="1.5" stroke-linecap="round" stroke-linejoin="round"/>
</svg>
