<svg width="20" height="20" viewBox="0 0 20 20" fill="none" xmlns="http://www.w3.org/2000/svg">
<g clip-path="url(#clip0_103_625)">
<path d="M20 9.37248C19.8794 7.4225 19.1909 5.55041 18.0193 3.987C16.8477 2.4236 15.2441 1.23723 13.4064 0.574144C11.5687 -0.0889375 9.57705 -0.199741 7.6771 0.255394C5.77715 0.710529 4.05192 1.71171 2.71409 3.1355C1.37626 4.55929 0.484331 6.34345 0.148249 8.26803C-0.187833 10.1926 0.0466277 12.1735 0.822727 13.9664C1.59883 15.7593 2.88264 17.286 4.51589 18.3581C6.14914 19.4302 8.06043 20.001 10.0141 20H15.8333C16.938 19.9989 17.9972 19.5595 18.7784 18.7784C19.5595 17.9972 19.9989 16.938 20 15.8333V9.37248ZM18.3333 15.8333C18.3333 16.4964 18.0699 17.1322 17.6011 17.6011C17.1322 18.0699 16.4963 18.3333 15.8333 18.3333H10.0141C8.83824 18.3328 7.67567 18.0844 6.60221 17.6044C5.52876 17.1244 4.56853 16.4235 3.78413 15.5475C2.99594 14.6719 2.40407 13.6379 2.04821 12.5148C1.69235 11.3917 1.58071 10.2056 1.7208 9.03581C1.94199 7.19077 2.77095 5.4718 4.077 4.14992C5.38304 2.82803 7.09188 1.97841 8.93413 1.73498C9.29349 1.68994 9.65529 1.66712 10.0175 1.66665C11.9595 1.66135 13.8415 2.3399 15.3333 3.58331C16.2046 4.30743 16.9197 5.20094 17.4354 6.20967C17.9511 7.2184 18.2566 8.32135 18.3333 9.45165V15.8333Z" fill="#FF6700"/>
<path d="M6.66634 7.49967H9.99967C10.2207 7.49967 10.4326 7.41187 10.5889 7.25559C10.7452 7.09931 10.833 6.88735 10.833 6.66634C10.833 6.44533 10.7452 6.23337 10.5889 6.07709C10.4326 5.92081 10.2207 5.83301 9.99967 5.83301H6.66634C6.44533 5.83301 6.23337 5.92081 6.07709 6.07709C5.92081 6.23337 5.83301 6.44533 5.83301 6.66634C5.83301 6.88735 5.92081 7.09931 6.07709 7.25559C6.23337 7.41187 6.44533 7.49967 6.66634 7.49967Z" fill="#FF6700"/>
<path d="M13.333 9.16699H6.66634C6.44533 9.16699 6.23337 9.25479 6.07709 9.41107C5.92081 9.56735 5.83301 9.77932 5.83301 10.0003C5.83301 10.2213 5.92081 10.4333 6.07709 10.5896C6.23337 10.7459 6.44533 10.8337 6.66634 10.8337H13.333C13.554 10.8337 13.766 10.7459 13.9223 10.5896C14.0785 10.4333 14.1663 10.2213 14.1663 10.0003C14.1663 9.77932 14.0785 9.56735 13.9223 9.41107C13.766 9.25479 13.554 9.16699 13.333 9.16699Z" fill="#FF6700"/>
<path d="M13.333 12.5H6.66634C6.44533 12.5 6.23337 12.5878 6.07709 12.7441C5.92081 12.9004 5.83301 13.1123 5.83301 13.3333C5.83301 13.5544 5.92081 13.7663 6.07709 13.9226C6.23337 14.0789 6.44533 14.1667 6.66634 14.1667H13.333C13.554 14.1667 13.766 14.0789 13.9223 13.9226C14.0785 13.7663 14.1663 13.5544 14.1663 13.3333C14.1663 13.1123 14.0785 12.9004 13.9223 12.7441C13.766 12.5878 13.554 12.5 13.333 12.5Z" fill="#FF6700"/>
</g>
<defs>
<clipPath id="clip0_103_625">
<rect width="20" height="20" fill="white"/>
</clipPath>
</defs>
</svg>
