<svg width="11" height="11" viewBox="0 0 11 11" xmlns="http://www.w3.org/2000/svg">
<g>
<path d="M9.16667 1.83333H6.875C6.875 1.3471 6.68185 0.880788 6.33803 0.536971C5.99421 0.193154 5.5279 0 5.04167 0L1.83333 0C1.3471 0 0.880788 0.193154 0.536971 0.536971C0.193154 0.880788 0 1.3471 0 1.83333L0 10.5417C0 10.6632 0.0482886 10.7798 0.134243 10.8658C0.220197 10.9517 0.336776 11 0.458333 11C0.579891 11 0.69647 10.9517 0.782424 10.8658C0.868378 10.7798 0.916667 10.6632 0.916667 10.5417V5.95833H4.58333C4.58333 6.44456 4.77649 6.91088 5.1203 7.2547C5.46412 7.59851 5.93044 7.79167 6.41667 7.79167H9.16667C9.6529 7.79167 10.1192 7.59851 10.463 7.2547C10.8068 6.91088 11 6.44456 11 5.95833V3.66667C11 3.18044 10.8068 2.71412 10.463 2.3703C10.1192 2.02649 9.6529 1.83333 9.16667 1.83333ZM0.916667 5.04167V1.83333C0.916667 1.59022 1.01324 1.35706 1.18515 1.18515C1.35706 1.01324 1.59022 0.916667 1.83333 0.916667H5.04167C5.28478 0.916667 5.51794 1.01324 5.68985 1.18515C5.86176 1.35706 5.95833 1.59022 5.95833 1.83333V4.125C5.95833 4.36812 5.86176 4.60127 5.68985 4.77318C5.51794 4.94509 5.28478 5.04167 5.04167 5.04167H0.916667ZM10.0833 5.95833C10.0833 6.20145 9.98676 6.43461 9.81485 6.60651C9.64294 6.77842 9.40978 6.875 9.16667 6.875H6.41667C6.17355 6.875 5.94039 6.77842 5.76849 6.60651C5.59658 6.43461 5.5 6.20145 5.5 5.95833V5.89325C5.8924 5.79194 6.24017 5.56346 6.48895 5.24353C6.73772 4.92361 6.87348 4.53027 6.875 4.125V2.75H9.16667C9.40978 2.75 9.64294 2.84658 9.81485 3.01849C9.98676 3.19039 10.0833 3.42355 10.0833 3.66667V5.95833Z"/>
</g>
<defs>
<clipPath id="clip0_52_574">
<rect width="11" height="11" fill="white"/>
</clipPath>
</defs>
</svg>
