<svg width="24" height="24" viewBox="0 0 24 24" fill="none" xmlns="http://www.w3.org/2000/svg">
<g clip-path="url(#clip0_955_6768)">
<path d="M10.7444 8L8.73905 12.3333L12.1366 21M12.1366 21L15.4347 12.3333L13.701 8M12.1366 21L3 12.3333M12.1366 21L21 12.3333M3 12.3333L6.4114 8.64248C6.78998 8.2329 7.32238 8 7.88013 8H16.4223C17.0125 8 17.5725 8.26066 17.9525 8.7122L21 12.3333M3 12.3333H21" stroke="#5479F8" stroke-width="2" stroke-linecap="round" stroke-linejoin="round"/>
<rect x="11" y="2" width="2" height="4" rx="1" fill="#5479F8"/>
<rect x="16.1338" y="1.76807" width="2" height="4" rx="1" transform="rotate(30 16.1338 1.76807)" fill="#5479F8"/>
<rect width="2" height="4" rx="1" transform="matrix(-0.866025 0.5 0.5 0.866025 7.86621 1.76807)" fill="#5479F8"/>
</g>
<defs>
<clipPath id="clip0_955_6768">
<rect width="24" height="24" fill="white"/>
</clipPath>
</defs>
</svg>
