<svg width="57" height="57" viewBox="0 0 57 57" fill="none" xmlns="http://www.w3.org/2000/svg">
<rect x="0.5" y="0.5" width="56" height="56" rx="28" fill="white" stroke="#E2E2E2"/>
<path fill-rule="evenodd" clip-rule="evenodd" d="M38.3496 28.7334C38.3496 28.0059 38.2843 27.3063 38.1631 26.6348H28.5V30.6035H34.0217C33.7839 31.886 33.061 32.9726 31.9744 33.7002V36.2745H35.2903C37.2303 34.4883 38.3496 31.858 38.3496 28.7334Z" fill="#4285F4"/>
<path fill-rule="evenodd" clip-rule="evenodd" d="M28.5003 38.7603C31.2705 38.7603 33.5929 37.8416 35.2905 36.2746L31.9747 33.7003C31.0559 34.3159 29.8807 34.6796 28.5003 34.6796C25.828 34.6796 23.5661 32.8748 22.7593 30.4497H19.3315V33.108C21.0198 36.4611 24.4895 38.7603 28.5003 38.7603Z" fill="#34A853"/>
<path fill-rule="evenodd" clip-rule="evenodd" d="M22.7593 30.4497C22.5541 29.8341 22.4375 29.1765 22.4375 28.5003C22.4375 27.824 22.5541 27.1665 22.7593 26.5509V23.8926H19.3315C18.6366 25.2777 18.2402 26.8447 18.2402 28.5003C18.2402 30.1558 18.6366 31.7228 19.3315 33.1079L22.7593 30.4497Z" fill="#FBBC05"/>
<path fill-rule="evenodd" clip-rule="evenodd" d="M28.5003 22.3209C30.0066 22.3209 31.3591 22.8386 32.4224 23.8553L35.3651 20.9125C33.5883 19.2569 31.2658 18.2402 28.5003 18.2402C24.4895 18.2402 21.0198 20.5394 19.3315 23.8926L22.7593 26.5508C23.5661 24.1257 25.828 22.3209 28.5003 22.3209Z" fill="#EA4335"/>
</svg>
