<svg width="19" height="19" viewBox="0 0 19 19" fill="none" xmlns="http://www.w3.org/2000/svg">
<path fill-rule="evenodd" clip-rule="evenodd" d="M8.84 2C5.06237 2 2 5.06237 2 8.84C2 12.6176 5.06237 15.68 8.84 15.68C10.7027 15.68 12.3914 14.9355 13.6249 13.7278C13.6265 13.7262 13.6281 13.7247 13.6296 13.7231C14.895 12.4818 15.68 10.7526 15.68 8.84C15.68 5.06237 12.6176 2 8.84 2ZM15.7177 14.3941C16.945 12.8763 17.68 10.944 17.68 8.84C17.68 3.9578 13.7222 0 8.84 0C3.9578 0 0 3.9578 0 8.84C0 13.7222 3.9578 17.68 8.84 17.68C10.8974 17.68 12.7907 16.9771 14.2928 15.7984L17.1047 18.5187C17.5016 18.9027 18.1347 18.8922 18.5187 18.4953C18.9027 18.0984 18.8922 17.4653 18.4953 17.0813L15.7177 14.3941Z" fill="#FF6700"/>
</svg>
