<svg width="20" height="20" viewBox="0 0 20 20" fill="none" xmlns="http://www.w3.org/2000/svg">
<path d="M2.5 10.8333L2.5 4.16667C2.5 3.24619 3.2462 2.5 4.16667 2.5L11.119 2.5C12.0395 2.5 12.7857 3.24619 12.7857 4.16667L12.7857 5.83335L15.8333 5.83335C16.7538 5.83335 17.5 6.57954 17.5 7.50002L17.5 12.5001C17.5 13.4206 16.7538 14.1668 15.8333 14.1668L9.30952 14.1668C8.38905 14.1668 7.64286 13.4206 7.64286 12.5001L7.64286 10.8334L2.5 10.8333Z" fill="#FFD7CB"/>
<path d="M2.5 17.5L2.5 10.8333M2.5 10.8333L2.5 4.16667C2.5 3.24619 3.2462 2.5 4.16667 2.5L11.119 2.5C12.0395 2.5 12.7857 3.24619 12.7857 4.16667L12.7857 5.83335M2.5 10.8333L7.64286 10.8334M12.7857 5.83335L12.7857 9.16665C12.7857 10.0871 12.0395 10.8333 11.1191 10.8333L7.64286 10.8334M12.7857 5.83335L15.8333 5.83335C16.7538 5.83335 17.5 6.57954 17.5 7.50002L17.5 12.5001C17.5 13.4206 16.7538 14.1668 15.8333 14.1668L9.30952 14.1668C8.38905 14.1668 7.64286 13.4206 7.64286 12.5001L7.64286 10.8334" stroke="#FF825B" stroke-width="1.5" stroke-linecap="round" stroke-linejoin="round"/>
</svg>
