<svg width="24" height="24" viewBox="0 0 24 24" fill="none" xmlns="http://www.w3.org/2000/svg">
<circle cx="12" cy="12" r="12" fill="#FF6700"/>
<path d="M16.3035 9.72161L13.7573 7.16755C13.2838 6.71431 12.6544 6.46143 11.9999 6.46143C11.3454 6.46143 10.716 6.71431 10.2425 7.16755L7.69632 9.72161C7.49661 9.92203 7.38445 10.1938 7.38452 10.4772C7.38459 10.7606 7.49687 11.0323 7.69668 11.2326C7.89648 11.4329 8.16743 11.5454 8.44993 11.5454C8.73243 11.5453 9.00333 11.4327 9.20304 11.2323L10.9348 9.49512V16.47C10.9348 16.7533 11.047 17.0251 11.2468 17.2254C11.4465 17.4258 11.7174 17.5383 11.9999 17.5383C12.2824 17.5383 12.5533 17.4258 12.753 17.2254C12.9528 17.0251 13.065 16.7533 13.065 16.47V9.49512L14.7968 11.2323C14.8957 11.3315 15.0131 11.4102 15.1423 11.4639C15.2715 11.5177 15.41 11.5453 15.5499 11.5454C15.6898 11.5454 15.8283 11.5178 15.9575 11.4641C16.0868 11.4105 16.2042 11.3318 16.3031 11.2326C16.4021 11.1334 16.4806 11.0157 16.5341 10.886C16.5877 10.7564 16.6153 10.6175 16.6153 10.4772C16.6153 10.3369 16.5878 10.1979 16.5343 10.0683C16.4808 9.93865 16.4024 9.82085 16.3035 9.72161Z" fill="white"/>
</svg>
